# File created by Blade
# Date/Time:  Tue Jan 27 19:38:24 2015
#---------------------------------------------------------
:version 1.10
:name HOM
:units
  mass 1.0
  length 1.000000
  angle deg
:documentation
     Acclaim Skeleton File
:root
   axis xyz
   order TX TY TZ RX RY RZ
   position 0.000000 0.000000 0.000000
   orientation 0 0 0
:bonedata
   begin
      id 1
      name Spine_dum
      direction 0.000000 1.000000 0.000000
      length 6.116652
      axis 0.0 0.0 0.0 xyz
   end
   begin
      id 2
      name LeftUpLeg_dum
      direction 1.000000 0.000000 0.000000
      length 4.711765
      axis 0.0 0.0 0.0 xyz
   end
   begin
      id 3
      name RightUpLeg_dum
      direction -1.000000 0.000000 0.000000
      length 4.711765
      axis 0.0 0.0 0.0 xyz
   end
   begin
      id 4
      name Spine
      direction 0.000000 1.000000 0.000000
      length 0.000000
      axis 0.0 0.0 0.0 xyz
      dof rx ry rz
   end
   begin
      id 5
      name Spine_dum1
      direction 0.000000 1.000000 0.000000
      length 15.225563
      axis 0.0 0.0 0.0 xyz
   end
   begin
      id 6
      name Spine_dum2
      direction 0.000000 1.000000 0.000000
      length 8.977654
      axis 0.0 0.0 0.0 xyz
   end
   begin
      id 7
      name Spine_dum3
      direction 0.000000 1.000000 0.000000
      length 8.977654
      axis 0.0 0.0 0.0 xyz
   end
   begin
      id 8
      name Head
      direction 0.000000 1.000000 0.000000
      length 4.527550
      axis 0.0 0.0 0.0 xyz
      dof rx ry rz
   end
   begin
      id 9
      name LeftShoulder
      direction 1.000000 0.000000 0.000000
      length 7.110130
      axis 0.0 0.0 -90.0 xyz
      dof rx ry rz
   end
   begin
      id 10
      name LeftArm
      direction 1.000000 0.000000 0.000000
      length 10.398341
      axis 0.0 0.0 -90.0 xyz
      dof rx ry rz
   end
   begin
      id 11
      name LeftForeArm
      direction 1.000000 0.000000 0.000000
      length 8.888997
      axis 0.0 0.0 -90.0 xyz
      dof ry rz rx
   end
   begin
      id 12
      name LeftHand
      direction 0.000000 0.000000 0.000000
      length 0.000000
      axis 0.0 0.0 -90.0 xyz
      dof rx ry rz
   end
   begin
      id 13
      name LeftHand_dum1
      direction 0.000000 0.000000 0.000000
      length 0.000000
      axis 0.0 0.0 -90.0 xyz
   end
   begin
      id 14
      name LeftHand_dum2
      direction 1.000000 0.000000 0.000000
      length 3.937000
      axis 0.0 0.0 -90.0 xyz
   end
   begin
      id 15
      name LeftHandThumb1
      direction 0.000000 0.000000 1.000000
      length 3.937000
      axis 0.0 0.0 -90.0 xyz
      dof rx rz ry
   end
   begin
      id 16
      name RightShoulder
      direction -1.000000 0.000000 0.000000
      length 7.110130
      axis 0.0 0.0 90.0 xyz
      dof rx ry rz
   end
   begin
      id 17
      name RightArm
      direction -1.000000 0.000000 0.000000
      length 10.398341
      axis 0.0 0.0 90.0 xyz
      dof rx ry rz
   end
   begin
      id 18
      name RightForeArm
      direction -1.000000 0.000000 0.000000
      length 8.888997
      axis 0.0 0.0 90.0 xyz
      dof ry rz rx
   end
   begin
      id 19
      name RightHand
      direction 0.000000 0.000000 0.000000
      length 0.000000
      axis 0.0 0.0 90.0 xyz
      dof rx ry rz
   end
   begin
      id 20
      name RightHand_dum1
      direction 0.000000 0.000000 0.000000
      length 0.000000
      axis 0.0 0.0 90.0 xyz
   end
   begin
      id 21
      name RightHand_dum2
      direction -1.000000 0.000000 0.000000
      length 3.937000
      axis 0.0 0.0 90.0 xyz
   end
   begin
      id 22
      name RightHandThumb1
      direction 0.000000 0.000000 1.000000
      length 3.937000
      axis 0.0 0.0 90.0 xyz
      dof rx rz ry
   end
   begin
      id 23
      name LeftUpLeg
      direction 0.000000 -1.000000 0.000000
      length 15.510451
      axis 0.0 0.0 0.0 xyz
      dof rx ry rz
   end
   begin
      id 24
      name LeftLeg
      direction 0.000000 -1.000000 0.000000
      length 14.858061
      axis 0.0 0.0 0.0 xyz
      dof rx ry rz
   end
   begin
      id 25
      name LeftFoot
      direction 0.000000 -0.258819 0.965926
      length 5.128852
      axis 15.0 0.0 0.0 xyz
      dof rx ry rz
   end
   begin
      id 26
      name LeftToeBase
      direction 0.000000 0.000000 1.000000
      length 2.952750
      axis 0.0 0.0 0.0 xyz
      dof rx ry rz
   end
   begin
      id 27
      name RightUpLeg
      direction 0.000000 -1.000000 0.000000
      length 15.510451
      axis 0.0 0.0 0.0 xyz
      dof rx ry rz
   end
   begin
      id 28
      name RightLeg
      direction 0.000000 -1.000000 0.000000
      length 14.858061
      axis 0.0 0.0 0.0 xyz
      dof rx ry rz
   end
   begin
      id 29
      name RightFoot
      direction 0.000000 -0.258819 0.965926
      length 5.128852
      axis 15.0 0.0 0.0 xyz
      dof rx ry rz
   end
   begin
      id 30
      name RightToeBase
      direction 0.000000 0.000000 1.000000
      length 2.952750
      axis 0.0 0.0 0.0 xyz
      dof rx ry rz
   end
:hierarchy
   begin
      root Spine_dum LeftUpLeg_dum RightUpLeg_dum
      Spine_dum Spine
      LeftUpLeg_dum LeftUpLeg
      RightUpLeg_dum RightUpLeg
      Spine Spine_dum1 Spine_dum2 Spine_dum3
      Spine_dum1 Head
      Spine_dum2 LeftShoulder
      Spine_dum3 RightShoulder
      LeftShoulder LeftArm
      LeftArm LeftForeArm
      LeftForeArm LeftHand
      LeftHand LeftHand_dum1 LeftHand_dum2
      LeftHand_dum1 LeftHandThumb1
      RightShoulder RightArm
      RightArm RightForeArm
      RightForeArm RightHand
      RightHand RightHand_dum1 RightHand_dum2
      RightHand_dum1 RightHandThumb1
      LeftUpLeg LeftLeg
      LeftLeg LeftFoot
      LeftFoot LeftToeBase
      RightUpLeg RightLeg
      RightLeg RightFoot
      RightFoot RightToeBase
   end

# File created by Blade
# Date/Time:  Tue Jan 27 19:38:14 2015
# Frame Rate: 120.000 fps
#------------------------------------------------------
:FULLY-SPECIFIED
:DEGREES
1587
root 4.664868 32.298080 2.049407 -5.964091 0.856930 0.466103
Spine 2.921236 11.154747 -0.233671
Head 15.746195 -16.484891 1.807000
LeftShoulder -7.067091 -4.214232 26.393274
LeftArm -0.912764 37.470165 -100.967795
LeftForeArm 3.959410 -0.000000 10.059993
LeftHand 10.523562 -0.000000 -5.176438
LeftHandThumb1 -26.253704 0.000000 33.147579
RightShoulder -5.311621 -5.786452 -23.987429
RightArm 12.916370 15.569526 109.928692
RightForeArm 1.387315 0.000000 80.123500
RightHand 24.425712 0.000000 -27.066589
RightHandThumb1 -24.326973 -0.000000 -32.862282
LeftUpLeg 9.446636 -3.340944 -3.890662
LeftLeg 3.940843 -0.000000 -0.000000
LeftFoot -17.727982 13.039973 -21.636181
LeftToeBase 16.902460 -0.000000 -0.000000
RightUpLeg 8.585340 -7.237017 2.220217
RightLeg 4.182593 -0.000000 -0.000000
RightFoot -13.804306 -13.988562 13.603072
RightToeBase 8.827143 -0.000000 -0.000000
1588
root 4.665928 32.298597 2.048251 -5.921027 0.847510 0.472576
Spine 2.872383 11.158897 -0.208457
Head 15.798767 -16.423824 1.733530
LeftShoulder -7.055394 -4.200916 26.345259
LeftArm -0.927751 37.434364 -100.976463
LeftForeArm 3.948592 0.000000 10.066881
LeftHand 10.565912 -0.000000 -5.503395
LeftHandThumb1 -26.253704 0.000000 33.147579
RightShoulder -5.306052 -5.691805 -24.152781
RightArm 13.147353 15.683567 110.028555
RightForeArm 0.806263 -0.000000 82.300079
RightHand 24.299227 -0.000000 -27.813424
RightHandThumb1 -24.326973 -0.000000 -32.862282
LeftUpLeg 9.407340 -3.375931 -3.906679
LeftLeg 3.939820 -0.000000 -0.000000
LeftFoot -17.769981 13.076933 -21.717756
LeftToeBase 16.954178 -0.000000 -0.000000
RightUpLeg 8.541520 -7.235320 2.217407
RightLeg 4.177491 -0.000000 -0.000000
RightFoot -13.806420 -13.986897 13.611719
RightToeBase 8.810551 -0.000000 -0.000000
1589
root 4.668257 32.299724 2.049623 -5.932588 0.853492 0.471640
Spine 2.890250 11.175185 -0.166519
Head 15.843351 -16.414615 1.680084
LeftShoulder -7.024507 -4.213623 26.309100
LeftArm -0.936810 37.394343 -101.004068
LeftForeArm 3.957246 -0.000000 10.059085
LeftHand 10.587742 -0.000000 -5.493281
LeftHandThumb1 -26.253704 0.000000 33.147579
RightShoulder -5.302332 -5.415534 -24.339106
RightArm 13.213141 15.850976 110.048771
RightForeArm 0.602326 -0.000000 84.361048
RightHand 24.246417 -0.000000 -28.005989
RightHandThumb1 -24.326973 -0.000000 -32.862282
LeftUpLeg 9.417781 -3.393637 -3.915342
LeftLeg 3.947232 -0.000000 -0.000000
LeftFoot -17.759069 13.098854 -21.693503
LeftToeBase 16.920471 -0.000000 -0.000000
RightUpLeg 8.570964 -7.281688 2.202311
RightLeg 4.147895 -0.000000 -0.000000
RightFoot -13.774792 -13.942664 13.598767
RightToeBase 8.829038 -0.000000 -0.000000
1590
root 4.667707 32.301379 2.047933 -5.930743 0.861965 0.465764
Spine 2.896691 11.172408 -0.129877
Head 15.887012 -16.383476 1.640687
LeftShoulder -7.002886 -4.236508 26.273040
LeftArm -0.956760 37.355930 -101.022365
LeftForeArm 3.971161 0.000000 10.052456
LeftHand 10.574986 -0.000000 -5.460583
LeftHandThumb1 -26.253704 0.000000 33.147579
RightShoulder -5.262365 -5.261050 -24.472536
RightArm 13.428366 15.977499 110.076797
RightForeArm 0.489672 -0.000000 86.363043
RightHand 24.123345 -0.000000 -28.243287
RightHandThumb1 -24.326973 -0.000000 -32.862282
LeftUpLeg 9.412210 -3.436259 -3.914444
LeftLeg 3.947544 -0.000000 -0.000000
LeftFoot -17.757794 13.125428 -21.714113
LeftToeBase 16.892828 -0.000000 -0.000000
RightUpLeg 8.592380 -7.230437 2.219496
RightLeg 4.094600 -0.000000 -0.000000
RightFoot -13.746108 -13.987549 13.641921
RightToeBase 8.811747 -0.000000 -0.000000
1591
root 4.664051 32.302590 2.046882 -5.918011 0.850767 0.457292
Spine 2.879510 11.209960 -0.109757
Head 15.945823 -16.400574 1.620665
LeftShoulder -6.973278 -4.227591 26.251051
LeftArm -0.929860 37.344402 -101.017623
LeftForeArm 3.958180 0.000000 10.033677
LeftHand 10.571153 -0.000000 -5.204090
LeftHandThumb1 -26.253704 0.000000 33.147579
RightShoulder -5.211259 -5.091122 -24.606605
RightArm 13.632935 16.173797 110.135871
RightForeArm 0.472838 -0.000000 88.259023
RightHand 23.949343 -0.000000 -28.304417
RightHandThumb1 -24.326973 -0.000000 -32.862282
LeftUpLeg 9.396601 -3.417618 -3.893135
LeftLeg 3.950877 -0.000000 -0.000000
LeftFoot -17.761276 13.095957 -21.751788
LeftToeBase 16.938102 -0.000000 -0.000000
RightUpLeg 8.596485 -7.160892 2.238255
RightLeg 4.054084 -0.000000 -0.000000
RightFoot -13.737704 -13.992234 13.727680
RightToeBase 8.852448 -0.000000 -0.000000
